# xmcd CD database file
#
# Track frame offsets:
#	150
#	12025
#	22525
#	33905
#	47332
#	53760
#	63712
#	72670
#	84062
#	97035
#	109000
#	119077
#	133150
#	140640
#	159507
#	170380
#
# Disc length: 2501 seconds
#
# Revision: 0
# Processed by: cddbd v1.5.1PL2 Copyright (c) Steve Scherf et al.
# Submitted via: CDex 1.51
#
DISCID=d009c310
DTITLE=Various Artist - si Noel m'était conté!
DYEAR=1993
DGENRE=Noel
TTITLE0=Danielle and Michèle  -  si Noel m'était conté!
TTITLE1=Bouchon and ses écureuils  -  le petit renne au nez rouge
TTITLE2=Michèle Richard (à 12ans)  -  le village du père Noel
TTITLE3=Les Laframboise  -  les anges dans nos campagnes
TTITLE4=Gigi Bastien  -  le bas de Noel
TTITLE5=Petit Pierre  -  petit Pierre et Saint-Nicolas
TTITLE6=Famille Demontigny  -  le bonhomme hiver
TTITLE7=Chantal Pary  -  le cadeau d'amour
TTITLE8=Les Laframboise  -  promenade en traineau
TTITLE9=Claire Aumont  -  Martin Le mulet
TTITLE10=Les Minous Blancs  -  vive l'hiver
TTITLE11=Danielle et Michèle  -  le bonhomme de neige
TTITLE12=Gigi Bastien  -  Nuit de Noel
TTITLE13=Guy Aubin  -  petit enfant saint
TTITLE14=Renée Martel  -  le p'tit train bleu
TTITLE15=Martine Villon  -  petit papa Noel
EXTD=YEAR: 1993
EXTT0=
EXTT1=
EXTT2=
EXTT3=
EXTT4=
EXTT5=
EXTT6=
EXTT7=
EXTT8=
EXTT9=
EXTT10=
EXTT11=
EXTT12=
EXTT13=
EXTT14=
EXTT15=
PLAYORDER=
